<svg width="32" height="32" viewBox="0 0 32 32" fill="none" xmlns="http://www.w3.org/2000/svg">
<mask id="mask0_1_255" style="mask-type:alpha" maskUnits="userSpaceOnUse" x="0" y="0" width="32" height="32">
<path d="M0 16C0 24.8366 7.16344 32 16 32C24.8366 32 32 24.8366 32 16C32 7.16344 24.8366 0 16 0C7.16344 0 0 7.16344 0 16Z" fill="#F00073"/>
</mask>
<g mask="url(#mask0_1_255)">
<path fill-rule="evenodd" clip-rule="evenodd" d="M7.27467 31.9843C6.56103 31.9589 5.64126 31.9031 5.22321 31.8187C4.58507 31.6898 3.98243 31.4945 3.48127 31.239C2.89243 30.9389 2.36469 30.5561 1.909 30.1011C1.45227 29.6452 1.06786 29.117 0.766571 28.5273C0.511851 28.0288 0.316578 27.4298 0.187164 26.7953C0.101088 26.373 0.044161 25.4464 0.0183548 24.7282C0.0078898 24.4346 0.00252035 24.0547 0.00252035 23.8795L0 8.12306C0 7.94855 0.00531466 7.56853 0.0157248 7.27463C0.0410927 6.56104 0.096924 5.64127 0.181356 5.22322C0.310168 4.58513 0.505605 3.98244 0.760983 3.48127C1.06112 2.89239 1.44394 2.36475 1.89892 1.90901C2.35478 1.45233 2.88307 1.06792 3.47272 0.766572C3.97126 0.511907 4.57022 0.316579 5.20469 0.187164C5.62696 0.101088 6.55363 0.0441611 7.27188 0.0184096C7.56534 0.00788982 7.94531 0.00252036 8.12053 0.00252036L23.8769 0C24.0515 0 24.4315 0.00525988 24.7253 0.0157248C25.4389 0.0411476 26.3587 0.0969242 26.7767 0.181356C27.4149 0.310223 28.0176 0.505661 28.5187 0.760984C29.1075 1.06113 29.6353 1.444 30.0909 1.89893C30.5476 2.35484 30.932 2.88302 31.2334 3.47272C31.488 3.97126 31.6834 4.57018 31.8128 5.2047C31.8989 5.62697 31.9558 6.5537 31.9816 7.27189C31.9921 7.5654 31.9974 7.94532 31.9974 8.12054L32 23.8769C32 24.0515 31.9947 24.4315 31.9842 24.7254C31.9588 25.439 31.903 26.3587 31.8186 26.7768C31.6898 27.4149 31.4943 28.0176 31.239 28.5187C30.9389 29.1076 30.5559 29.6353 30.1011 30.091C29.6452 30.5477 29.1169 30.9321 28.5272 31.2334C28.0287 31.4881 27.4298 31.6835 26.7952 31.8128C26.373 31.8989 25.4463 31.9558 24.7281 31.9816C24.4346 31.9922 24.0546 31.9975 23.8794 31.9975L8.12305 32C7.94848 32 7.56846 31.9947 7.27467 31.9843Z" fill="url(#paint0_radial_1_255)"/>
</g>
<path d="M16 9.19995C18.2 9.19995 18.5 9.19995 19.4 9.19995C20.2 9.19995 20.6 9.39995 20.9 9.49995C21.3 9.69995 21.6 9.79995 21.9 10.1C22.2 10.4 22.4 10.7 22.5 11.1C22.6 11.4 22.7 11.8 22.8 12.6C22.8 13.5 22.8 13.7 22.8 16C22.8 18.3 22.8 18.5 22.8 19.4C22.8 20.2 22.6 20.6 22.5 20.9C22.3 21.3 22.2 21.6 21.9 21.9C21.6 22.2 21.3 22.4 20.9 22.5C20.6 22.6 20.2 22.7 19.4 22.8C18.5 22.8 18.3 22.8 16 22.8C13.7 22.8 13.5 22.8 12.6 22.8C11.8 22.8 11.4 22.6 11.1 22.5C10.7 22.3 10.4 22.2 10.1 21.9C9.80001 21.6 9.60001 21.3 9.50001 20.9C9.40001 20.6 9.30001 20.2 9.20001 19.4C9.20001 18.5 9.20001 18.3 9.20001 16C9.20001 13.7 9.20001 13.5 9.20001 12.6C9.20001 11.8 9.40001 11.4 9.50001 11.1C9.70001 10.7 9.80001 10.4 10.1 10.1C10.4 9.79995 10.7 9.59995 11.1 9.49995C11.4 9.39995 11.8 9.29995 12.6 9.19995C13.5 9.19995 13.8 9.19995 16 9.19995ZM16 7.69995C13.7 7.69995 13.5 7.69995 12.6 7.69995C11.7 7.69995 11.1 7.89995 10.6 8.09995C10.1 8.29995 9.60001 8.59995 9.10001 9.09995C8.60001 9.59995 8.40001 9.99995 8.10001 10.6C7.90001 11.1 7.80001 11.7 7.70001 12.6C7.70001 13.5 7.70001 13.8 7.70001 16C7.70001 18.3 7.70001 18.5 7.70001 19.4C7.70001 20.3 7.90001 20.9 8.10001 21.4C8.30001 21.9 8.60001 22.4 9.10001 22.9C9.60001 23.4 10 23.6 10.6 23.9C11.1 24.1 11.7 24.1999 12.6 24.2999C13.5 24.2999 13.8 24.2999 16 24.2999C18.2 24.2999 18.5 24.2999 19.4 24.2999C20.3 24.2999 20.9 24.1 21.4 23.9C21.9 23.7 22.4 23.4 22.9 22.9C23.4 22.4 23.6 22 23.9 21.4C24.1 20.9 24.2 20.3 24.3 19.4C24.3 18.5 24.3 18.2 24.3 16C24.3 13.8 24.3 13.5 24.3 12.6C24.3 11.7 24.1 11.1 23.9 10.6C23.7 10.1 23.4 9.59995 22.9 9.09995C22.4 8.59995 22 8.39995 21.4 8.09995C20.9 7.89995 20.3 7.79995 19.4 7.69995C18.5 7.69995 18.3 7.69995 16 7.69995Z" fill="white"/>
<path d="M16 11.7C13.6 11.7 11.7 13.6 11.7 16C11.7 18.4 13.6 20.3 16 20.3C18.4 20.3 20.3 18.4 20.3 16C20.3 13.6 18.4 11.7 16 11.7ZM16 18.8C14.5 18.8 13.2 17.6 13.2 16C13.2 14.5 14.4 13.2 16 13.2C17.5 13.2 18.8 14.4 18.8 16C18.8 17.5 17.5 18.8 16 18.8Z" fill="white"/>
<path d="M20.4 12.6C20.9523 12.6 21.4 12.1522 21.4 11.6C21.4 11.0477 20.9523 10.6 20.4 10.6C19.8477 10.6 19.4 11.0477 19.4 11.6C19.4 12.1522 19.8477 12.6 20.4 12.6Z" fill="white"/>
<defs>
<radialGradient id="paint0_radial_1_255" cx="0" cy="0" r="1" gradientUnits="userSpaceOnUse" gradientTransform="translate(8.50004 34.4647) rotate(-90) scale(31.7144)">
<stop stop-color="#FFDD55"/>
<stop offset="0.1" stop-color="#FFDD55"/>
<stop offset="0.5" stop-color="#FF543E"/>
<stop offset="1" stop-color="#C837AB"/>
</radialGradient>
</defs>
</svg>
