<svg width="20" height="20" viewBox="0 0 20 20" fill="none" xmlns="http://www.w3.org/2000/svg">
<path d="M18.3333 14.0034V16.5034C18.3343 16.7354 18.2867 16.9652 18.1937 17.1778C18.1008 17.3905 17.9644 17.5814 17.7934 17.7382C17.6224 17.8951 17.4205 18.0146 17.2006 18.0889C16.9808 18.1633 16.7478 18.1909 16.5167 18.17C13.9523 17.8914 11.4892 17.0151 9.32498 15.6117C7.31151 14.3322 5.60443 12.6252 4.32499 10.6117C2.91663 8.4377 2.04019 5.96252 1.76665 3.38669C1.74583 3.15625 1.77321 2.92399 1.84707 2.70471C1.92092 2.48543 2.03963 2.28393 2.19562 2.11304C2.35162 1.94215 2.54149 1.80562 2.75314 1.71213C2.9648 1.61864 3.1936 1.57024 3.42499 1.57003H5.92499C6.32941 1.56605 6.72148 1.70926 7.02812 1.97297C7.33476 2.23668 7.53505 2.6029 7.59165 3.00336C7.69717 3.80342 7.89286 4.58897 8.17499 5.34503C8.2871 5.6433 8.31137 5.96746 8.24491 6.27909C8.17844 6.59073 8.02404 6.87679 7.79998 7.10336L6.74165 8.16169C7.92795 10.248 9.65536 11.9754 11.7417 13.1617L12.8 12.1034C13.0266 11.8793 13.3126 11.7249 13.6243 11.6584C13.9359 11.592 14.26 11.6162 14.5583 11.7284C15.3144 12.0105 16.0999 12.2062 16.9 12.3117C17.3048 12.3688 17.6745 12.5727 17.9388 12.8846C18.203 13.1965 18.3435 13.5947 18.3333 14.0034Z" stroke="black" stroke-width="2" stroke-linecap="round" stroke-linejoin="round"/>
</svg>
